<svg xmlns="http://www.w3.org/2000/svg" width="100.062" height="184.201" viewBox="0 0 100.062 184.201"><path d="M60.181-31.968a9.4,9.4,0,0,0-4.588,3.706c-1.606,2.7-1.837,7.094-1.837,7.094L47.64-24.26l-6.6,10.07s-2.983,17.86-2.559,21.7,5.7,8.875,10.07,20.43S71.518,128.206,71.518,128.206a14.884,14.884,0,0,1-6.749,2.3,21.468,21.468,0,0,1-7.844-1.549L47.64,64.244s.677,23.629-1.8,41.471a114.748,114.748,0,0,1-8.1,29.894s-17.523,2.077-33.19,2.45a277.166,277.166,0,0,1-29.48-.957S-13.789,98.64-7.087,65.384,3.879,7.513,3.879,7.513L-1.24-16.18l-14.666-6s2.279-9.753,4.5-13.17S1.883-42.763,1.883-42.763L18.4-19.475,38.487-42.763,53.118-38.6l7.063,6.632" transform="translate(26.87 44.561)" fill="none" stroke="#f7d4d4" stroke-width="3" opacity="0.821"/></svg>