<svg xmlns="http://www.w3.org/2000/svg" width="98.043" height="238.69" viewBox="0 0 98.043 238.69"><g transform="translate(-467.646 -787.129)" opacity="0.821"><path d="M-2.426,21.273A74.162,74.162,0,0,0,.358,6.993a118.548,118.548,0,0,0,0-16.763,56.78,56.78,0,0,1,17.849-9.913c10.123-3.21,22.644-2.927,22.644-2.927s12.383-1.171,24.091,2.927S87.682-6.22,87.682-6.22A51.219,51.219,0,0,0,85.437,7.887c0,4.138.724,11.321,1.372,16.943.145,1.257-5.063-9.745-17.237-16.943-7.964-4.709-21-6.22-30.546-6.835C31.593.573,22.572.126,15.969,3.547a48.376,48.376,0,0,0-9,6.626,48.894,48.894,0,0,0-9.4,11.1" transform="translate(471.5 811.5)" fill="none" stroke="#f7d4d4" stroke-width="3"/><path d="M-.2,12.036S8.39,47.145,6.978,56.595c-.9,6.038-17.117,145.411-13.087,149.3.553.539,28.614,5.289,29.332,5.325a164.358,164.358,0,0,0,27.942-1.54s-1.1-47.611,0-56.461,3.829-17.2,12.911,1.829l17.879,50.846,2.5,1.354L56.343,39.708,69.565,10.049" transform="translate(479.247 812.946)" fill="none" stroke="#f7d4d4" stroke-width="3"/></g></svg>