<svg xmlns="http://www.w3.org/2000/svg" width="1360.278" height="607.074" viewBox="0 0 1360.278 607.074"><g transform="translate(-212.707 -157.136)"><g transform="translate(209 739.21)" fill="none"><path d="M33,25H3.707S8.834,14.968,17.084,14.968,33,25,33,25Z" stroke="none"/><path d="M 25.87126541137695 22 C 23.5915470123291 20.11495018005371 20.29095458984375 17.96826171875 17.08447074890137 17.96826171875 C 15.75191116333008 17.96826171875 14.39910125732422 18.35087013244629 13.06360149383545 19.1054515838623 C 11.89027118682861 19.76840019226074 10.72433185577393 20.7153205871582 9.598161697387695 21.91989135742188 C 9.573173522949219 21.94661903381348 9.548409461975098 21.9732551574707 9.523681640625 22 L 25.87126541137695 22 M 33 25 L 3.706541538238525 25 C 3.706541538238525 25 8.834471702575684 14.96826076507568 17.08447074890137 14.96826076507568 C 25.33447074890137 14.96826076507568 33 25 33 25 Z" stroke="none" fill="#acabab"/></g><g transform="translate(1539.985 734.21)" fill="none"><path d="M33,25H3.707S8.834,14.968,17.084,14.968,33,25,33,25Z" stroke="none"/><path d="M 25.87126541137695 22 C 23.5915470123291 20.11495018005371 20.29095458984375 17.96826171875 17.08447074890137 17.96826171875 C 15.75191116333008 17.96826171875 14.39910125732422 18.35087013244629 13.06360149383545 19.1054515838623 C 11.89027118682861 19.76840019226074 10.72433185577393 20.7153205871582 9.598161697387695 21.91989135742188 C 9.573173522949219 21.94661903381348 9.548409461975098 21.9732551574707 9.523681640625 22 L 25.87126541137695 22 M 33 25 L 3.706541538238525 25 C 3.706541538238525 25 8.834471702575684 14.96826076507568 17.08447074890137 14.96826076507568 C 25.33447074890137 14.96826076507568 33 25 33 25 Z" stroke="none" fill="#acabab"/></g><g transform="translate(534.827 190.532)" opacity="0.821"><path d="M29.906-7.968,34.033,18.9A34.173,34.173,0,0,0,26.92,29.065c-2.582,5.945-2.46,4.657-3.215,13.614s6.2,26.754,6.2,26.754-2.649,19.381-6.2,33.66S21.4,111.866,15.7,126.549.9,161.828.9,161.828s22.917,3.486,47.632,4.649,69.963-4.649,69.963-4.649-5.024-12.9-10.669-27.143-7.106-13.524-11.914-29.836-7.32-35.415-7.32-35.415,7.838-14.483,7.32-24.439.668-7.573-2.371-14.513-9.784-13.247-9.784-13.247l4.835-25.2" transform="translate(-0.902 7.968)" fill="none" stroke="#f7d4d4" stroke-width="3"/><path d="M0,1.807S11.189,19.1,23.387,18.647,48.795,0,48.795,0" transform="translate(33.522 25.272)" fill="none" stroke="#f7d4d4" stroke-width="3"/></g><path d="M-173.9-42.363s-1.037-5.266-4.211-6.822a6.9,6.9,0,0,0-8,1.466c-2.152,2.476-1.667,5.943-.609,8.439,1.323,3.121,5.313,4.066,5.313,4.066v4.727l-43.514,17.9s-1.57,2.165-1.016,3.972,3.229,3.258,3.229,3.258l83.259.114S-136-7.314-135.7-9.313s-2.52-3.932-2.52-3.932L-176.027-26.93" transform="translate(773.998 208.5)" fill="none" stroke="#acabab" stroke-width="3"/><path d="M74.981,1.561s6.554,21.33,5.373,24.651-17.54,18.671-17.54,18.671S44.55,27.233,43.552,24s4-22.442,4-22.442L40.116,12.524S30.087,46.077,29.893,49.99s9.014,18.434,8.778,22.517S27.8,95.145,25.266,101.18s-2.2,35.979-2.2,35.979l-24.713,21.6A51.42,51.42,0,0,0,10.895,169.7c7.114,4.118,19.236,4.5,19.236,4.5l4.155-4.5h5.831v4.5l33.123.8v-5.874l4.565-1.04,2.551,5.539s-.94,2.1,7.281-1.307,23.164-11.5,23.164-11.5L93.3,140.531s1.812-29.577,0-37.229S83.908,77.09,84.2,73.914,94.252,54.776,94.226,49.99,80.354,12.524,80.354,12.524L74.981,1.562" transform="translate(246.5 180.5)" fill="none" stroke="#f7d4d4" stroke-width="3" opacity="0.821"/><g transform="translate(225 158.644)"><path d="M-.3,605.71V31.235S-5.035,14.869-.3,9.413s18.934,0,18.934,0H1319.5s8.828-4.1,11.771,0,0,16.414,0,16.414V602.421" transform="translate(2.406 -5.144)" fill="none" stroke="#acabab" stroke-width="3"/><path d="M-173.9-42.363s-1.037-5.266-4.211-6.822a6.9,6.9,0,0,0-8,1.466c-2.152,2.476-1.667,5.943-.609,8.439,1.323,3.121,5.313,4.066,5.313,4.066v4.727l-43.514,17.9s-1.57,2.165-1.016,3.972,3.229,3.258,3.229,3.258l83.259.114S-136-7.314-135.7-9.313s-2.52-3.932-2.52-3.932L-176.027-26.93" transform="translate(264.526 49.856)" fill="none" stroke="#acabab" stroke-width="3"/></g><path d="M-173.9-42.363s-1.037-5.266-4.211-6.822a6.9,6.9,0,0,0-8,1.466c-2.152,2.476-1.667,5.943-.609,8.439,1.323,3.121,5.313,4.066,5.313,4.066v4.727l-21.564,8.869a80.478,80.478,0,0,0,3.422,8.374c1.08,2.334,1.654,7.919,4.827,7.923l38.008.052s-.082-7.888,2.328-11.2c1.806-2.466,6.737-.184-1.625-3.211l-20.021-7.246" transform="translate(637.526 208.5)" fill="none" stroke="#acabab" stroke-width="3"/><g transform="translate(390.642 186.382)"><path d="M0,.823A271.359,271.359,0,0,1,29.98.192,183.506,183.506,0,0,1,56.424,3.51" transform="matrix(0.999, -0.035, 0.035, 0.999, 38.853, 75.86)" fill="none" stroke="#d8b0b4" stroke-width="3"/><path d="M0,.671A289.754,289.754,0,0,1,29.726.213a207.47,207.47,0,0,1,26.7,3.145" transform="matrix(0.999, -0.035, 0.035, 0.999, 39.059, 81.766)" fill="none" stroke="#d8b0b4" stroke-width="3"/><line x2="16.505" y2="34.546" transform="matrix(0.999, -0.035, 0.035, 0.999, 77.664, 43.451)" fill="none" stroke="#d8b0b4" stroke-width="3"/><path d="M0,0S.948,24.559,3.9,40.8s7.9,24.16,7.9,24.16l12.637,35.236" transform="matrix(0.999, -0.035, 0.035, 0.999, 95.405, 78.55)" fill="none" stroke="#d8b0b4" stroke-width="3"/><path d="M92.347,1.722A75.666,75.666,0,0,1,88.833,20.24C84.79,32.2,77.642,44.66,76.489,41.969c-.52-1.213-19.328-18.9-19.328-18.9S43.214,0,43.043,0c-.282,0-5.331,1.444-5.788,1.442-3.282-.017-6.326.31-13.191,1.439C17.391,3.978,4.936,18.22,5.252,18.691c1.1,1.633,10.753,9.8,18.813,10.893a6.868,6.868,0,0,1,5.245,4.03l1.945,12.478L35.4,54.565l1.484,25.321s-5.2,15.563-10.259,30.6-4.591,14.647-9.988,29.556S0,169.086,0,169.086s10.284,7.836,15.535,8.175,10.812-3.563,19.021-3.023,8.623,3.591,21.255,5.21,29.274,1.267,29.274,1.267l31.378-3.617,10.166-7.831a200.481,200.481,0,0,1-13.441-24.119,267.706,267.706,0,0,1-10.754-28.142L92.347,76.9,96,59.394l6.167-9.224,2.887-8.2,16.523-11.331L114.141,14.38l-16.3-7.7L92.347,1.722" transform="matrix(0.999, -0.035, 0.035, 0.999, 0, 4.419)" fill="none" stroke="#d8b0b4" stroke-width="3"/></g></g></svg>