<svg xmlns="http://www.w3.org/2000/svg" width="121.86" height="176.42" viewBox="0 0 121.86 176.42"><g transform="translate(-486.238 -663.25)" opacity="0.821"><path d="M29.906-7.968,34.033,18.9A34.173,34.173,0,0,0,26.92,29.065c-2.582,5.945-2.46,4.657-3.215,13.614s6.2,26.754,6.2,26.754-2.649,19.381-6.2,33.66S21.4,111.866,15.7,126.549.9,161.828.9,161.828s22.917,3.486,47.632,4.649,69.963-4.649,69.963-4.649-5.024-12.9-10.669-27.143-7.106-13.524-11.914-29.836-7.32-35.415-7.32-35.415,7.838-14.483,7.32-24.439.668-7.573-2.371-14.513-9.784-13.247-9.784-13.247l4.835-25.2" transform="translate(487.5 671.5)" fill="none" stroke="#f7d4d4" stroke-width="3"/><path d="M0,1.807S11.189,19.1,23.387,18.647,48.795,0,48.795,0" transform="translate(521.924 688.804)" fill="none" stroke="#f7d4d4" stroke-width="3"/></g></svg>