<svg xmlns="http://www.w3.org/2000/svg" width="99.21" height="174.613" viewBox="0 0 99.21 174.613"><g transform="translate(-261.663 -2485.174)"><g transform="translate(84 1920)" opacity="0.821"><path d="M74.884,156.787H-21.025l14.23-74.741S-3.131,60.888.155,46.856,6.349,25.921,6.349,25.921L-3.828-6.173s3.309-7.947,10.177-8.6,17.3,6,17.3,6,9.066-6.649,14.2-6,14.676,6,14.676,6L41.71,25.921s7.964,26.543,17.113,50.837,16.061,80.029,16.061,80.029" transform="translate(200.5 581.5)" fill="none" stroke="#f7d4d4" stroke-width="3"/><path d="M23.45-15.211,16.168-28.666H13.812l-5.6,14.061,15.242-.606" transform="translate(208.286 609.997) rotate(3)" fill="none" stroke="#f7d4d4" stroke-width="3"/></g></g></svg>