<svg xmlns="http://www.w3.org/2000/svg" width="116.868" height="175.817" viewBox="0 0 116.868 175.817"><path d="M74.981,1.561s6.554,21.33,5.373,24.651-17.54,18.671-17.54,18.671S44.55,27.233,43.552,24s4-22.442,4-22.442L40.116,12.524S30.087,46.077,29.893,49.99s9.014,18.434,8.778,22.517S27.8,95.145,25.266,101.18s-2.2,35.979-2.2,35.979l-24.713,21.6A51.42,51.42,0,0,0,10.895,169.7c7.114,4.118,19.236,4.5,19.236,4.5l4.155-4.5h5.831v4.5l33.123.8v-5.874l4.565-1.04,2.551,5.539s-.94,2.1,7.281-1.307,23.164-11.5,23.164-11.5L93.3,140.531s1.812-29.577,0-37.229S83.908,77.09,84.2,73.914,94.252,54.776,94.226,49.99,80.354,12.524,80.354,12.524L74.981,1.562" transform="translate(3.716 -0.719)" fill="none" stroke="#f7d4d4" stroke-width="3" opacity="0.821"/></svg>