<svg xmlns="http://www.w3.org/2000/svg" width="94.375" height="175.84" viewBox="0 0 94.375 175.84"><g transform="translate(-230.986 -667.789)" opacity="0.821"><path d="M19.718-16.685a78.292,78.292,0,0,1,0,14.521c-.08.921-2.188,1.1-2.3,2.487-.511,6.429-2.085,16.073-1.066,27.109S21.9,40.857,21.5,44.467c-.471,4.165-4.366,7.883-6.866,14.07s-5.5,12.486-8.9,36.06-4.693,58.237-4.693,58.237,21.749,1.795,44.536,1.795,46.612-1.795,46.612-1.795-4.579-38.55-8.839-61.647-8.2-30.74-8.2-30.74-5.62-12.578-5.462-14.981,3.407-6.34,4.374-18.718-.507-30.793-.507-30.793l-2.137-.672L73.3-19.521" transform="translate(231.5 687.5)" fill="none" stroke="#f7d4d4" stroke-width="3"/><path d="M-.113-.194-.77,6.053l-.8,7.595,1.456,1.261L19.66,41.123l18.594-28.13,1.947-1.7v-15" transform="translate(257.459 672.39)" fill="none" stroke="#f7d4d4" stroke-width="3"/></g></svg>