<svg xmlns="http://www.w3.org/2000/svg" width="274.939" height="606.32" viewBox="0 0 274.939 606.32"><g transform="translate(-350.463 -1635.69)"><g transform="translate(138 308)"><g transform="translate(214.642 1342.751)"><path d="M0,1.644S31.711-.957,59.891.384a366.591,366.591,0,0,1,52.828,6.627" transform="matrix(0.999, -0.035, 0.035, 0.999, 77.616, 151.547)" fill="none" stroke="#d0cece" stroke-width="3"/><path d="M0,1.341S31.2-.916,59.383.426a414.464,414.464,0,0,1,53.336,6.282" transform="matrix(0.999, -0.035, 0.035, 0.999, 78.028, 163.345)" fill="none" stroke="#d0cece" stroke-width="3"/><line x2="32.972" y2="69.012" transform="matrix(0.999, -0.035, 0.035, 0.999, 155.151, 86.801)" fill="none" stroke="#d0cece" stroke-width="3"/><path d="M0,0S1.893,49.061,7.787,81.5s15.787,48.264,15.787,48.264l25.246,70.391" transform="matrix(0.999, -0.035, 0.035, 0.999, 190.592, 156.919)" fill="none" stroke="#d0cece" stroke-width="3"/><path d="M184.482,3.44a151.157,151.157,0,0,1-7.02,36.995c-8.077,23.895-22.356,48.783-24.659,43.406-1.038-2.424-38.611-37.761-38.611-37.761S86.329,0,85.987,0c-.564,0-10.649,2.885-11.562,2.88-6.557-.034-12.637.619-26.351,2.875C34.742,7.948,9.861,36.4,10.492,37.338,12.679,40.6,31.973,56.916,48.074,59.1c7.746,1.05,10.478,8.05,10.478,8.05l3.885,24.928L70.719,109l2.965,50.584S63.3,190.678,53.189,220.724s-9.172,29.261-19.953,59.045S0,337.783,0,337.783s20.545,15.653,31.034,16.331,21.6-7.118,38-6.039,17.225,7.173,42.461,10.408,58.481,2.531,58.481,2.531l62.683-7.226,20.308-15.643a400.5,400.5,0,0,1-26.85-48.183c-12.083-26.1-21.483-56.218-21.483-56.218l-20.149-80.118,7.3-34.973,12.32-18.427,5.768-16.385,33.007-22.635L228.021,28.727,195.456,13.34l-10.974-9.9" transform="matrix(0.999, -0.035, 0.035, 0.999, 0, 8.828)" fill="none" stroke="#d0cece" stroke-width="3"/></g><path d="M0,0S27.731,82.523,27.286,106.512s-3.147,37.008,0,68.656a271.14,271.14,0,0,0,12.587,57.938" transform="translate(276.644 1700.397)" fill="none" stroke="#707070" stroke-width="3"/><path d="M32.431-2.54,15.459,53.787s-7,21.8-7.826,43.565,3.8,25.4,4.505,43.483-1.673,28.844-1.673,28.844l-10.684,47" transform="translate(377.912 1708.657)" fill="none" stroke="#707070" stroke-width="3"/><path d="M-1.487.342S8.665,77.35,7.983,93.987,5.87,105.979,5.9,136.753s2.191,80.331,2.191,80.331" transform="translate(350.603 1707.985)" fill="none" stroke="#707070" stroke-width="3"/><path d="M6.479,0,3.093,50.81-8.388,91.926" transform="translate(421.224 1430.484)" fill="none" stroke="#707070" stroke-width="3"/><path d="M31.964-6.3a177.744,177.744,0,0,1,0,35.994c-2.067,18.7,3.466,18.063-4.028,45.562-1.784,6.545-6.134,13.289-8.846,20.5A414.872,414.872,0,0,1-1.034,139.776" transform="translate(425.644 1416.618)" fill="none" stroke="#707070" stroke-width="3"/><path d="M-4.445-3.184S-5.192,1.4-.4,31.5c2.19,13.754,3.008,33.6,6.815,51.034,4.421,20.251,32.824,82.942,32.824,82.942" transform="translate(236.283 1399.021)" fill="none" stroke="#707070" stroke-width="3"/><path d="M0,0,7.948,65.411,21.225,116.96" transform="translate(265.142 1409.781)" fill="none" stroke="#707070" stroke-width="3"/><path d="M0,19.937s18.138-6.2,26-11.18S31.439,0,31.439,0" transform="translate(302.715 1328.5)" fill="none" stroke="#707070" stroke-width="3"/><path d="M26.838,19.937S15.057,15.279,8.347,10.294,0,0,0,0" transform="translate(371.727 1328.5)" fill="none" stroke="#707070" stroke-width="3"/><g transform="translate(298.881 1700.005)"><line y2="31.439" transform="translate(3.834 0.393)" fill="none" stroke="#a33838" stroke-width="3"/><path d="M0-.819,3.938-3.512,7.668-.819" transform="translate(0 3.512)" fill="none" stroke="#a33838" stroke-width="3"/><path d="M0,2.693,3.938,0l3.73,2.693" transform="translate(7.668 31.831) rotate(180)" fill="none" stroke="#a33838" stroke-width="3"/></g><g transform="translate(274.533 1365.944) rotate(-34)"><line y2="31.439" transform="translate(3.834 0.393)" fill="none" stroke="#a33838" stroke-width="3"/><path d="M0,2.693,3.938,0l3.73,2.693" transform="translate(0 0)" fill="none" stroke="#a33838" stroke-width="3"/><path d="M0,2.693,3.938,0l3.73,2.693" transform="translate(7.668 31.831) rotate(180)" fill="none" stroke="#a33838" stroke-width="3"/></g><g transform="matrix(0.951, 0.309, -0.309, 0.951, 414.406, 1369.875)"><line y2="31.439" transform="translate(3.834 0.393)" fill="none" stroke="#a33838" stroke-width="3"/><path d="M0,2.693,3.938,0l3.73,2.693" transform="translate(0 0)" fill="none" stroke="#a33838" stroke-width="3"/><path d="M0,2.693,3.938,0l3.73,2.693" transform="translate(7.668 31.831) rotate(180)" fill="none" stroke="#a33838" stroke-width="3"/></g><g transform="matrix(-0.017, 1, -1, -0.017, 287.403, 1493.67)"><line y2="65.972" transform="translate(8.045 0.824)" fill="none" stroke="#a33838" stroke-width="3"/><path d="M0,5.651,8.264,0l7.827,5.651" transform="translate(0 0)" fill="none" stroke="#a33838" stroke-width="3"/></g><g transform="translate(420.606 1510.71) rotate(-90)"><line y2="65.972" transform="translate(8.045 0.824)" fill="none" stroke="#a33838" stroke-width="3"/><path d="M0,5.651,8.264,0l7.827,5.651" transform="translate(0 0)" fill="none" stroke="#a33838" stroke-width="3"/></g></g></g></svg>