<svg xmlns="http://www.w3.org/2000/svg" width="261.593" height="273.29" viewBox="0 0 261.593 273.29"><g transform="translate(-1418 -389)"><g transform="translate(-1 -22)"><g transform="translate(1419 411)" fill="none" stroke="#fff" stroke-width="1"><rect width="261.593" height="273.29" stroke="none"/><rect x="0.5" y="0.5" width="260.593" height="272.29" fill="none"/></g><g transform="translate(1478.39 445.931)"><path d="M79.838,1.561s6.969,22.682,5.714,26.214S66.9,47.629,66.9,47.629,47.478,28.86,46.417,25.425s4.25-23.864,4.25-23.864l-7.9,11.658S32.1,48.9,31.892,53.06,41.477,72.662,41.227,77,29.67,101.076,26.973,107.495s-2.343,38.26-2.343,38.26L-1.65,168.728a54.679,54.679,0,0,0,13.34,11.627c7.565,4.379,20.455,4.785,20.455,4.785l4.418-4.785h6.2v4.785l35.222.854v-6.246l4.854-1.106,2.712,5.891s-1,2.229,7.742-1.39,24.632-12.229,24.632-12.229L99.314,149.339s1.927-31.451,0-39.589S89.331,81.877,89.646,78.5,100.331,58.149,100.3,53.06s-14.751-39.84-14.751-39.84L79.838,1.562" transform="translate(1.65 17.806)" fill="none" stroke="#f7d4d4" stroke-width="3" opacity="0.821"/><g transform="translate(119.675)"><g transform="translate(-3.435 -66.437)" fill="#daaeb3"><path d="M17.526,71.269a6.229,6.229,0,0,1,2.383-3.322,7.894,7.894,0,0,1,4.916-1.385,7.077,7.077,0,0,1,4.846,2.532,6.614,6.614,0,0,1,1.135,1.565,11.8,11.8,0,0,1,.869,3.384,8.927,8.927,0,0,1-.529,2.469c-.4,1.272-2.24,2.993-4.992,5.915a111.829,111.829,0,0,1-8.629,8.01l-6.98-6.329s-6.489-6.3-6.988-8.63a7.3,7.3,0,0,1,0-2.627A5.682,5.682,0,0,1,4.68,69.813a6.886,6.886,0,0,1,4.791-3.252c2.534-.467,3.8.46,5.345,1.385A9.323,9.323,0,0,1,17.526,71.269Z" stroke="none"/><path d="M 10.75357627868652 67.43668365478516 C 10.41235542297363 67.43668365478516 10.04166603088379 67.47309875488281 9.651775360107422 67.54490661621094 C 7.57359504699707 67.92765808105469 6.555404663085938 68.87673950195312 5.49897575378418 70.38674926757812 C 4.714115142822266 71.50860595703125 4.635746002197266 72.21416473388672 4.552776336669922 72.96117401123047 C 4.54194450378418 73.05858612060547 4.530244827270508 73.15615844726562 4.518434524536133 73.25440979003906 C 4.442115783691406 73.88975524902344 4.370025634765625 74.4898681640625 4.536705017089844 75.26789855957031 C 4.596534729003906 75.54720306396484 5.021335601806641 76.71302795410156 7.975296020507812 79.98745727539062 C 9.544784545898438 81.72721862792969 11.08199501037598 83.23290252685547 11.23163223266602 83.37894439697266 L 17.55046081542969 89.10865783691406 C 19.00741195678711 87.86898803710938 22.58791351318359 84.7554931640625 25.42698669433594 81.74064636230469 C 25.95066452026367 81.18454742431641 26.45150566101074 80.6611328125 26.89337539672852 80.19934844970703 C 28.59370422363281 78.42238616943359 29.93671607971191 77.01884460449219 30.19399642944336 76.20867919921875 C 30.41389465332031 75.5162353515625 30.66314506530762 74.73140716552734 30.67656517028809 74.02476501464844 C 30.67802429199219 73.63114929199219 30.26363563537598 71.80193328857422 29.91408538818359 71.10860443115234 C 29.65377426147461 70.59230804443359 29.46977615356445 70.38444519042969 29.21511459350586 70.09675598144531 C 29.12004470825195 69.98935699462891 29.01229476928711 69.86763763427734 28.89600563049316 69.72464752197266 C 27.47723579406738 67.98017883300781 25.51361465454102 67.62786865234375 24.73522567749023 67.55736541748047 C 24.59342575073242 67.54452514648438 24.4460563659668 67.53801727294922 24.29721450805664 67.53801727294922 C 23.42642593383789 67.53802490234375 22.0523853302002 67.75473785400391 20.45149612426758 68.78714752197266 C 18.99143600463867 69.72873687744141 18.49770545959473 71.50694274902344 18.49398612976074 71.52061462402344 L 17.81324577331543 74.13530731201172 L 16.62766456604004 71.70746612548828 C 16.3382453918457 71.11480712890625 15.35597610473633 69.43787384033203 14.3004150390625 68.80406951904297 C 14.18866539001465 68.73695373535156 14.07830619812012 68.66984558105469 13.96878623962402 68.60323333740234 C 12.89714622497559 67.95148468017578 12.05069541931152 67.43668365478516 10.75357627868652 67.43668365478516 M 10.75357818603516 66.43668365478516 C 12.48245048522949 66.43668365478516 13.55878257751465 67.19232177734375 14.81520462036133 67.94674682617188 C 16.35578536987305 68.87178802490234 17.5262451171875 71.26866912841797 17.5262451171875 71.26866912841797 C 17.5262451171875 71.26866912841797 18.08473587036133 69.12354278564453 19.90952491760254 67.94674682617188 C 21.50243759155273 66.91948699951172 23.04396057128906 66.53802490234375 24.29720687866211 66.53801727294922 C 24.47964477539062 66.53800964355469 24.65593338012695 66.54609680175781 24.82542419433594 66.56144714355469 C 26.37463569641113 66.70175933837891 28.29366493225098 67.39914703369141 29.67181587219238 69.09368896484375 C 30.08201599121094 69.59803771972656 30.38143539428711 69.81429290771484 30.80701446533203 70.65841674804688 C 31.23259544372559 71.50255584716797 31.68651580810547 73.51141357421875 31.67639541625977 74.04270935058594 C 31.66054534912109 74.87759399414062 31.39794540405273 75.721435546875 31.14708518981934 76.5113525390625 C 30.74313545227051 77.78340911865234 28.90683555603027 79.50400543212891 26.15499496459961 82.42621612548828 C 22.43366622924805 86.37794494628906 17.5262451171875 90.43660736083984 17.5262451171875 90.43660736083984 L 10.54658508300781 84.107666015625 C 10.54658508300781 84.107666015625 4.057214736938477 77.80359649658203 3.55888557434082 75.47736358642578 C 3.329154968261719 74.40497589111328 3.473134994506836 73.62263488769531 3.55888557434082 72.85076904296875 C 3.656866073608398 71.96864318847656 3.777435302734375 71.10301971435547 4.679595947265625 69.81349945068359 C 5.732175827026367 68.30898284912109 6.936735153198242 67.02812957763672 9.470645904541016 66.56144714355469 C 9.938018798828125 66.47536468505859 10.36256980895996 66.43668365478516 10.75357818603516 66.43668365478516 Z" stroke="none" fill="rgba(255,255,255,0.55)"/></g></g></g></g><line x2="9" y2="7" transform="translate(1584.5 415.5)" fill="none" stroke="#daaeb3" stroke-width="1"/><line y2="10" transform="translate(1611.5 407.5)" fill="none" stroke="#daaeb3" stroke-width="1"/><line y1="8" x2="8" transform="translate(1629.5 416.5)" fill="none" stroke="#daaeb3" stroke-width="1"/><line x2="3" y2="6" transform="translate(1598.5 412.5)" fill="none" stroke="#daaeb3" stroke-width="1"/><line y1="5" x2="4" transform="translate(1622.5 413.5)" fill="none" stroke="#daaeb3" stroke-width="1"/></g></svg>