<svg xmlns="http://www.w3.org/2000/svg" width="1088" height="194.072" viewBox="0 0 1088 194.072"><g transform="translate(135.97 -121.503)"><path d="M-135.97,123.481c11.329-.04,22.658-.1,33.987-.106q36.136-.02,72.266-.007h4.08c-5.856,11.309-11.421,22.071-17.027,32.9-16.294-7.718-33.367-9.131-50.862-9.639v60.547h62c-5.592,11.217-10.94,21.925-16.446,32.971-14.346-7.335-29.709-8.385-45.376-8.484,0,13.62-.238,27.1.066,40.57.3,13.574,3.09,26.778,7.658,40.075H-135.97v-.66c.456-1.1.977-2.172,1.353-3.295,5.77-17.112,6.86-34.839,6.886-52.7.04-25.187.158-50.367-.066-75.554a221.034,221.034,0,0,0-1.75-29.577c-1.287-8.919-4.219-17.595-6.424-26.382Z" transform="translate(0 -0.634)" fill="#fff"/><path d="M1390.646,314.151h-49.687c1.617-6.265,3.8-12.392,4.7-18.7a238.3,238.3,0,0,0,2.8-30.145c.384-25.847.133-51.707.126-77.561,0-.621-.073-1.248-.172-2.793-20.151,24.943-39.785,49.251-59.683,73.884-20.229-24.949-40.279-49.68-60.751-74.94-.146,1.327-.3,2.086-.3,2.845.026,27.392-.078,54.79.158,82.182a134.953,134.953,0,0,0,6.887,42.121c.31.918.548,1.868.885,3.037h-49.476c1.518-5.869,3.519-11.514,4.363-17.324,1.38-9.441,2.733-18.981,2.826-28.494.377-39.381.3-78.769.265-118.15a8.849,8.849,0,0,0-1.869-5.328c-5.546-6.483-11.355-12.749-17.2-19.232.833-.066,1.75-.2,2.668-.2,15.073-.013,30.145.026,45.217-.053,2.126-.013,3.281.442,4.126,2.628,3.077,7.982,7.988,14.861,13.37,21.457q23.46,28.759,46.808,57.623c.673.825,1.42,1.6,2.357,2.634,5.044-6.232,9.943-12.28,14.828-18.327,12.716-15.746,25.537-31.4,38.068-47.3,4.126-5.242,7.448-11.111,11.229-16.631.588-.858,1.678-1.941,2.543-1.948,13.626-.125,27.254-.086,41.593-.086-.917,1.353-1.432,2.265-2.087,3.05-8.635,10.345-12.353,22.44-12.372,35.7-.06,35.862-.106,71.731.152,107.587a124.622,124.622,0,0,0,6.794,39.487C1390.111,312.1,1390.334,313.049,1390.646,314.151Z" transform="translate(-445.297 -1.29)" fill="#fff"/><path d="M758.764,315.575c-27.029-.106-50.869-8.464-70.49-27.3-16.921-16.234-26.243-36.358-28.567-59.663-5.222-52.295,31.69-97.36,81.852-105.389,35.215-5.638,67.282,2.291,93.254,28.006,18.954,18.77,26.652,42.253,25.7,68.668-1.809,50.268-36.819,88.3-86.969,94.5C768.641,315.014,763.689,315.2,758.764,315.575Zm64.727-92.085c-.469-4.324-.64-8.305-1.374-12.174-4.865-25.821-17.97-45.818-41.943-57.649-22.81-11.257-49.528-6.906-66.337,10.623-10.544,11-15.792,24.48-16.737,39.533-1.67,26.705,5.7,50.281,25.689,68.853,19.047,17.7,48.241,21.912,69.48,9.817C815.159,269.453,822.956,248.115,823.491,223.49Z" transform="translate(-270.199 0)" fill="#fff"/><path d="M1051.739,231.129c16.016,29.227,36.681,55.629,57.438,82.638a25.839,25.839,0,0,1-2.878.363c-8.471.02-16.941.119-25.412-.066a12,12,0,0,1-5.506-1.723c-9.56-5.612-17.034-13.627-23.564-22.328-14.5-19.344-28.533-39.038-42.754-58.593a14.6,14.6,0,0,0-2.225-2.634c.066,28.514-2.668,57.246,7.843,85.127h-49.7c1.8-7.837,4.252-15.548,5.222-23.437a304.331,304.331,0,0,0,2.231-33.182c.317-24.857.093-49.727.1-74.583.007-18.981-1.247-37.79-7.6-55.906a6.075,6.075,0,0,1-.165-1.274c23.694.1,47.4-2.35,70.813,1.961,15.133,2.786,28.713,9.21,38.84,21.3,17.489,20.862,14.571,52.262-6.641,70.767C1062.936,223.774,1057.324,227.135,1051.739,231.129Zm-45.086-7.454c10.048-2.364,19.436-5.638,27.676-11.54a46.09,46.09,0,0,0,7.638-6.734c13.686-15.39,10.821-38.681-6.193-50.809-8.661-6.18-18.413-8.774-29.121-8.761Z" transform="translate(-374.026 -1.163)" fill="#fff"/><path d="M208.588,219.32h72.623c-2.707,6.345-5.222,12.247-7.85,18.393-7.407-4.232-15.238-5.79-23.616-5.882a20.937,20.937,0,0,0-.244,2.159c.059,19.793-.079,39.6.343,59.385.132,6.173,1.8,12.313,2.793,18.657H229.18c.931-4.786,2.469-9.639,2.72-14.551.581-11.521.614-23.074.726-34.614.106-10.22.02-20.44.02-31.043a60.96,60.96,0,0,0-23.173,4.3,2.624,2.624,0,0,0-1.089,2.053c-.013,21.642-1.07,43.369,5.07,64.522.885,3.043,1.789,6.08,2.76,9.375H166.461c1.36-4.945,2.839-9.837,4.047-14.789,2.806-11.494,3.644-23.226,3.677-35,.092-36.74.033-73.481.026-110.221,0-1.07-.106-2.133-.178-3.512a130.667,130.667,0,0,0-60.633,14.7c.251-1.373.33-2.271.574-3.116,3.334-11.375,6.727-22.738,10-34.133.528-1.835,1.162-2.7,3.288-2.7q71.777.1,143.555.059c.528,0,1.063.1,2.014.2-5.3,12.385-10.51,24.553-15.482,36.153-8.068-2.865-15.713-6.285-23.715-8.226-8.048-1.954-16.446-2.436-25.048-3.6C208.588,172.069,208.588,195.427,208.588,219.32Z" transform="translate(-84.735 -0.611)" fill="#fff"/><path d="M602.493,125.65c-5.764,11.144-11.3,21.84-16.921,32.707-16.149-7.678-33.248-9.1-50.8-9.646v60.653h61.9c-5.586,11.177-10.953,21.912-16.433,32.885-14.445-7.374-29.789-8.411-45.666-8.477.013,27.22-1.815,54.322,8.12,80.5h-49.9c1.631-6.6,3.9-13,4.687-19.582a360.816,360.816,0,0,0,2.9-36.741c.429-25.292.139-50.6.125-75.9-.007-18.651-1.34-37.123-7.573-54.923a9.274,9.274,0,0,1-.231-1.472Z" transform="translate(-213.619 -1.409)" fill="#fff"/><path d="M38.68,123.55H88.189c-1.644,6.477-3.8,12.755-4.734,19.205-1.426,9.87-2.713,19.859-2.812,29.808-.317,31.446-.185,62.9.033,94.357a134.3,134.3,0,0,0,6.965,42.418c.277.819.482,1.664.8,2.773H38.792c1.6-6.4,3.862-12.7,4.641-19.166a365,365,0,0,0,2.931-37.057C46.8,230.6,46.5,205.3,46.5,180c-.007-18.644-1.34-37.117-7.573-54.9A10.247,10.247,0,0,1,38.68,123.55Z" transform="translate(-59.345 -0.696)" fill="#fff"/><path d="M349.03,314.809c.007-25.834,21.126-47.251,46.98-47.819,14.432-.317,27.531,3.235,38.16,13.343,24.863,23.655,15.369,66.654-17.265,78.736-21.272,7.876-44.914,1.829-57.992-14.835A47.085,47.085,0,0,1,349.03,314.809Zm18.486-1.651a39.792,39.792,0,0,0,10.94,26.323c16.512,17.258,43.006,11.283,49.7-11.158,4.41-14.788-1.215-32.409-13.521-41.745-8.279-6.272-17.522-8.622-27.643-5.433C374.765,285,367.5,296.3,367.516,313.158Z" transform="translate(-164.801 -49.429)" fill="#fff"/></g></svg>